<?xml version="1.0" encoding="utf-8"?>
<!-- Generator: Adobe Illustrator 25.3.1, SVG Export Plug-In . SVG Version: 6.00 Build 0)  -->
<svg version="1.1" id="Слой_1" xmlns="http://www.w3.org/2000/svg" xmlns:xlink="http://www.w3.org/1999/xlink" x="0px" y="0px"
	 viewBox="0 0 40 40" style="enable-background:new 0 0 40 40;" xml:space="preserve">
<style type="text/css">
	.st0{fill-rule:evenodd;clip-rule:evenodd;fill:#0072C6;}
	.st1{fill-rule:evenodd;clip-rule:evenodd;fill:#2687CF;}
	.st2{fill-rule:evenodd;clip-rule:evenodd;fill:#FFFFFF;}
	.st3{fill-rule:evenodd;clip-rule:evenodd;fill:#7FBA00;}
	.st4{fill-rule:evenodd;clip-rule:evenodd;fill:#B8D432;}
</style>
<g>
	<g>
		<path class="st0" d="M20,5.5V40c-8.3,0-15-2.4-15-5.5V5.5H20z"/>
		<g>
			<path id="C_4_" class="st0" d="M19.8,40V5.5H35v29.1c0,3-6.7,5.5-15,5.5L19.8,40L19.8,40z"/>
		</g>
	</g>
	<g>
		<g>
			<path id="C_12_" class="st1" d="M19.8,40V5.5H35v29.1c0,3-6.7,5.5-15,5.5L19.8,40L19.8,40z"/>
		</g>
	</g>
	<path class="st2" d="M35,5.5c0-3-6.7-5.5-15-5.5S5,2.4,5,5.5s6.7,5.5,15,5.5S35,8.5,35,5.5"/>
	<path class="st3" d="M31.9,5.1c0-2-5.3-3.6-11.9-3.6S8.1,3.2,8.1,5.1S13.4,8.8,20,8.8S31.9,7.1,31.9,5.1"/>
	<path class="st4" d="M29.4,7.4C27.3,6.5,23.8,6,20,6s-7.3,0.5-9.4,1.4C9,6.7,8.1,6,8.1,5.2c0-2,5.3-3.6,11.9-3.6s11.9,1.6,11.9,3.6
		C31.9,6,31,6.7,29.4,7.4"/>
	<path class="st2" d="M15.2,25.6c0-0.6-0.2-1.2-0.6-1.6s-1-0.9-1.9-1.3c-0.6-0.3-1-0.5-1.2-0.7c-0.2-0.2-0.3-0.4-0.3-0.7
		c0-0.3,0.1-0.5,0.4-0.7c0.2-0.2,0.6-0.3,1-0.3c0.8,0,1.5,0.2,2.2,0.7v-2c-0.6-0.2-1.4-0.4-2.3-0.4c-1,0-1.9,0.3-2.5,0.8
		s-0.9,1.2-0.9,2.1c0,1.2,0.7,2.1,2.2,2.8c0.7,0.3,1.2,0.6,1.4,0.8s0.3,0.5,0.3,0.8c0,0.3-0.1,0.5-0.4,0.7s-0.6,0.3-1,0.3
		c-0.9,0-1.7-0.3-2.5-1V28c0.7,0.4,1.5,0.5,2.4,0.5c1.1,0,2-0.2,2.7-0.7S15.2,26.5,15.2,25.6L15.2,25.6z M25.4,23.5
		c0-0.9-0.2-1.8-0.6-2.5s-0.9-1.3-1.6-1.7s-1.5-0.6-2.3-0.6c-0.9,0-1.8,0.2-2.5,0.6s-1.3,1-1.7,1.8s-0.6,1.7-0.6,2.6
		c0,0.9,0.2,1.7,0.6,2.4s0.9,1.3,1.6,1.7c0.7,0.4,1.4,0.6,2.3,0.7l2,2.2h2.8l-2.7-2.6c0.9-0.3,1.6-0.9,2.1-1.7S25.4,24.6,25.4,23.5
		L25.4,23.5z M23.2,23.6c0,0.9-0.2,1.7-0.6,2.2s-1,0.8-1.7,0.8c-0.7,0-1.3-0.3-1.7-0.8s-0.7-1.3-0.7-2.2c0-0.9,0.2-1.7,0.7-2.2
		s1-0.8,1.8-0.8c0.7,0,1.3,0.3,1.7,0.8S23.2,22.6,23.2,23.6L23.2,23.6z M32.6,26.6h-3.5v-7.8H27v9.5h5.6L32.6,26.6z"/>
</g>
</svg>
